<svg xmlns="http://www.w3.org/2000/svg" width="1080" height="1920" viewBox="0 0 1080 1920" preserveAspectRatio="xMidYMax slice"><defs>
    <linearGradient id="sky" x1="0" y1="0" x2="0" y2="1"><stop offset="0" stop-color="#c8c2fc"/><stop offset=".55" stop-color="#e8e5fe"/><stop offset="1" stop-color="#f8f7ff"/></linearGradient>
    <linearGradient id="skyS" x1="0" y1="0" x2="0" y2="1"><stop offset="0" stop-color="#bab3fb"/><stop offset=".45" stop-color="#e1defd"/><stop offset=".8" stop-color="#f5f4fe"/><stop offset="1" stop-color="#fdfcff"/></linearGradient>
    <radialGradient id="sun" cx=".5" cy=".5" r=".5"><stop offset="0" stop-color="#fff4cc"/><stop offset=".55" stop-color="#ffe08a" stop-opacity=".9"/><stop offset="1" stop-color="#ffe08a" stop-opacity="0"/></radialGradient>
    <linearGradient id="bMain" x1="0" y1="0" x2="1" y2="1"><stop offset="0" stop-color="#766adc"/><stop offset="1" stop-color="#5a4cd5"/></linearGradient>
    <linearGradient id="bSide" x1="0" y1="0" x2="1" y2="1"><stop offset="0" stop-color="#8d83e2"/><stop offset="1" stop-color="#8277df"/></linearGradient>
    <linearGradient id="hill" x1="0" y1="0" x2="0" y2="1"><stop offset="0" stop-color="#766aa5"/><stop offset="1" stop-color="#368458"/></linearGradient>
    <linearGradient id="ground" x1="0" y1="0" x2="0" y2="1"><stop offset="0" stop-color="#766aa5"/><stop offset="1" stop-color="#358458"/></linearGradient>
    <linearGradient id="fade" x1="0" y1="0" x2="0" y2="1"><stop offset="0" stop-color="#fdfcff" stop-opacity="0"/><stop offset="1" stop-color="#fdfcff" stop-opacity=".35"/></linearGradient></defs>
  <rect width="1080" height="1920" fill="url(#skyS)"/>
  <circle cx="820" cy="360" r="260" fill="url(#sun)"/>
  
  <g transform="translate(230 300) scale(1.2)" opacity="0.95" fill="#fdfcff">
    <ellipse cx="0" cy="0" rx="90" ry="34"/><circle cx="-30" cy="-22" r="36"/><circle cx="26" cy="-30" r="46"/><circle cx="66" cy="-6" r="30"/>
  </g>
  <g transform="translate(900 620) scale(0.8)" opacity="0.8" fill="#fdfcff">
    <ellipse cx="0" cy="0" rx="90" ry="34"/><circle cx="-30" cy="-22" r="36"/><circle cx="26" cy="-30" r="46"/><circle cx="66" cy="-6" r="30"/>
  </g>
  <g transform="translate(160 900) scale(0.7)" opacity="0.7" fill="#fdfcff">
    <ellipse cx="0" cy="0" rx="90" ry="34"/><circle cx="-30" cy="-22" r="36"/><circle cx="26" cy="-30" r="46"/><circle cx="66" cy="-6" r="30"/>
  </g>
  <g transform="translate(760 1000) scale(1)" opacity="0.6" fill="#fdfcff">
    <ellipse cx="0" cy="0" rx="90" ry="34"/><circle cx="-30" cy="-22" r="36"/><circle cx="26" cy="-30" r="46"/><circle cx="66" cy="-6" r="30"/>
  </g>
  <rect x="40" y="1180" width="150" height="610" rx="10" fill="#d0cbf9"/><rect x="62" y="1214" width="26" height="30" rx="4.68" fill="#fdfcff" opacity=".55"/><rect x="102" y="1214" width="26" height="30" rx="4.68" fill="#fdfcff" opacity=".55"/><rect x="142" y="1214" width="26" height="30" rx="4.68" fill="#fdfcff" opacity=".55"/><rect x="62" y="1270" width="26" height="30" rx="4.68" fill="#fdfcff" opacity=".55"/><rect x="102" y="1270" width="26" height="30" rx="4.68" fill="#fdfcff" opacity=".55"/><rect x="142" y="1270" width="26" height="30" rx="4.68" fill="#fdfcff" opacity=".55"/><rect x="62" y="1326" width="26" height="30" rx="4.68" fill="#fdfcff" opacity=".55"/><rect x="102" y="1326" width="26" height="30" rx="4.68" fill="#fdfcff" opacity=".55"/><rect x="142" y="1326" width="26" height="30" rx="4.68" fill="#fdfcff" opacity=".55"/><rect x="62" y="1382" width="26" height="30" rx="4.68" fill="#fdfcff" opacity=".55"/><rect x="102" y="1382" width="26" height="30" rx="4.68" fill="#fdfcff" opacity=".55"/><rect x="142" y="1382" width="26" height="30" rx="4.68" fill="#fdfcff" opacity=".55"/><rect x="62" y="1438" width="26" height="30" rx="4.68" fill="#fdfcff" opacity=".55"/><rect x="102" y="1438" width="26" height="30" rx="4.68" fill="#fdfcff" opacity=".55"/><rect x="142" y="1438" width="26" height="30" rx="4.68" fill="#fdfcff" opacity=".55"/><rect x="62" y="1494" width="26" height="30" rx="4.68" fill="#fdfcff" opacity=".55"/><rect x="102" y="1494" width="26" height="30" rx="4.68" fill="#fdfcff" opacity=".55"/><rect x="142" y="1494" width="26" height="30" rx="4.68" fill="#fdfcff" opacity=".55"/><rect x="62" y="1550" width="26" height="30" rx="4.68" fill="#fdfcff" opacity=".55"/><rect x="102" y="1550" width="26" height="30" rx="4.68" fill="#fdfcff" opacity=".55"/><rect x="142" y="1550" width="26" height="30" rx="4.68" fill="#fdfcff" opacity=".55"/><rect x="62" y="1606" width="26" height="30" rx="4.68" fill="#fdfcff" opacity=".55"/><rect x="102" y="1606" width="26" height="30" rx="4.68" fill="#fdfcff" opacity=".55"/><rect x="142" y="1606" width="26" height="30" rx="4.68" fill="#fdfcff" opacity=".55"/><rect x="62" y="1662" width="26" height="30" rx="4.68" fill="#fdfcff" opacity=".55"/><rect x="102" y="1662" width="26" height="30" rx="4.68" fill="#fdfcff" opacity=".55"/><rect x="142" y="1662" width="26" height="30" rx="4.68" fill="#fdfcff" opacity=".55"/><rect x="200" y="1260" width="120" height="530" rx="10" fill="#d0cbf9"/><rect x="222" y="1294" width="16" height="30" rx="2.88" fill="#fdfcff" opacity=".55"/><rect x="252" y="1294" width="16" height="30" rx="2.88" fill="#fdfcff" opacity=".55"/><rect x="282" y="1294" width="16" height="30" rx="2.88" fill="#fdfcff" opacity=".55"/><rect x="222" y="1350" width="16" height="30" rx="2.88" fill="#fdfcff" opacity=".55"/><rect x="252" y="1350" width="16" height="30" rx="2.88" fill="#fdfcff" opacity=".55"/><rect x="282" y="1350" width="16" height="30" rx="2.88" fill="#fdfcff" opacity=".55"/><rect x="222" y="1406" width="16" height="30" rx="2.88" fill="#fdfcff" opacity=".55"/><rect x="252" y="1406" width="16" height="30" rx="2.88" fill="#fdfcff" opacity=".55"/><rect x="282" y="1406" width="16" height="30" rx="2.88" fill="#fdfcff" opacity=".55"/><rect x="222" y="1462" width="16" height="30" rx="2.88" fill="#fdfcff" opacity=".55"/><rect x="252" y="1462" width="16" height="30" rx="2.88" fill="#fdfcff" opacity=".55"/><rect x="282" y="1462" width="16" height="30" rx="2.88" fill="#fdfcff" opacity=".55"/><rect x="222" y="1518" width="16" height="30" rx="2.88" fill="#fdfcff" opacity=".55"/><rect x="252" y="1518" width="16" height="30" rx="2.88" fill="#fdfcff" opacity=".55"/><rect x="282" y="1518" width="16" height="30" rx="2.88" fill="#fdfcff" opacity=".55"/><rect x="222" y="1574" width="16" height="30" rx="2.88" fill="#fdfcff" opacity=".55"/><rect x="252" y="1574" width="16" height="30" rx="2.88" fill="#fdfcff" opacity=".55"/><rect x="282" y="1574" width="16" height="30" rx="2.88" fill="#fdfcff" opacity=".55"/><rect x="222" y="1630" width="16" height="30" rx="2.88" fill="#fdfcff" opacity=".55"/><rect x="252" y="1630" width="16" height="30" rx="2.88" fill="#fdfcff" opacity=".55"/><rect x="282" y="1630" width="16" height="30" rx="2.88" fill="#fdfcff" opacity=".55"/><rect x="222" y="1686" width="16" height="30" rx="2.88" fill="#fdfcff" opacity=".55"/><rect x="252" y="1686" width="16" height="30" rx="2.88" fill="#fdfcff" opacity=".55"/><rect x="282" y="1686" width="16" height="30" rx="2.88" fill="#fdfcff" opacity=".55"/><rect x="330" y="1120" width="170" height="670" rx="10" fill="#d0cbf9"/><rect x="352" y="1154" width="32.666666666666664" height="30" rx="5.3999999999999995" fill="#fdfcff" opacity=".55"/><rect x="398.6666666666667" y="1154" width="32.666666666666664" height="30" rx="5.3999999999999995" fill="#fdfcff" opacity=".55"/><rect x="445.3333333333333" y="1154" width="32.666666666666664" height="30" rx="5.3999999999999995" fill="#fdfcff" opacity=".55"/><rect x="352" y="1210" width="32.666666666666664" height="30" rx="5.3999999999999995" fill="#fdfcff" opacity=".55"/><rect x="398.6666666666667" y="1210" width="32.666666666666664" height="30" rx="5.3999999999999995" fill="#fdfcff" opacity=".55"/><rect x="445.3333333333333" y="1210" width="32.666666666666664" height="30" rx="5.3999999999999995" fill="#fdfcff" opacity=".55"/><rect x="352" y="1266" width="32.666666666666664" height="30" rx="5.3999999999999995" fill="#fdfcff" opacity=".55"/><rect x="398.6666666666667" y="1266" width="32.666666666666664" height="30" rx="5.3999999999999995" fill="#fdfcff" opacity=".55"/><rect x="445.3333333333333" y="1266" width="32.666666666666664" height="30" rx="5.3999999999999995" fill="#fdfcff" opacity=".55"/><rect x="352" y="1322" width="32.666666666666664" height="30" rx="5.3999999999999995" fill="#fdfcff" opacity=".55"/><rect x="398.6666666666667" y="1322" width="32.666666666666664" height="30" rx="5.3999999999999995" fill="#fdfcff" opacity=".55"/><rect x="445.3333333333333" y="1322" width="32.666666666666664" height="30" rx="5.3999999999999995" fill="#fdfcff" opacity=".55"/><rect x="352" y="1378" width="32.666666666666664" height="30" rx="5.3999999999999995" fill="#fdfcff" opacity=".55"/><rect x="398.6666666666667" y="1378" width="32.666666666666664" height="30" rx="5.3999999999999995" fill="#fdfcff" opacity=".55"/><rect x="445.3333333333333" y="1378" width="32.666666666666664" height="30" rx="5.3999999999999995" fill="#fdfcff" opacity=".55"/><rect x="352" y="1434" width="32.666666666666664" height="30" rx="5.3999999999999995" fill="#fdfcff" opacity=".55"/><rect x="398.6666666666667" y="1434" width="32.666666666666664" height="30" rx="5.3999999999999995" fill="#fdfcff" opacity=".55"/><rect x="445.3333333333333" y="1434" width="32.666666666666664" height="30" rx="5.3999999999999995" fill="#fdfcff" opacity=".55"/><rect x="352" y="1490" width="32.666666666666664" height="30" rx="5.3999999999999995" fill="#fdfcff" opacity=".55"/><rect x="398.6666666666667" y="1490" width="32.666666666666664" height="30" rx="5.3999999999999995" fill="#fdfcff" opacity=".55"/><rect x="445.3333333333333" y="1490" width="32.666666666666664" height="30" rx="5.3999999999999995" fill="#fdfcff" opacity=".55"/><rect x="352" y="1546" width="32.666666666666664" height="30" rx="5.3999999999999995" fill="#fdfcff" opacity=".55"/><rect x="398.6666666666667" y="1546" width="32.666666666666664" height="30" rx="5.3999999999999995" fill="#fdfcff" opacity=".55"/><rect x="445.3333333333333" y="1546" width="32.666666666666664" height="30" rx="5.3999999999999995" fill="#fdfcff" opacity=".55"/><rect x="352" y="1602" width="32.666666666666664" height="30" rx="5.3999999999999995" fill="#fdfcff" opacity=".55"/><rect x="398.6666666666667" y="1602" width="32.666666666666664" height="30" rx="5.3999999999999995" fill="#fdfcff" opacity=".55"/><rect x="445.3333333333333" y="1602" width="32.666666666666664" height="30" rx="5.3999999999999995" fill="#fdfcff" opacity=".55"/><rect x="352" y="1658" width="32.666666666666664" height="30" rx="5.3999999999999995" fill="#fdfcff" opacity=".55"/><rect x="398.6666666666667" y="1658" width="32.666666666666664" height="30" rx="5.3999999999999995" fill="#fdfcff" opacity=".55"/><rect x="445.3333333333333" y="1658" width="32.666666666666664" height="30" rx="5.3999999999999995" fill="#fdfcff" opacity=".55"/><rect x="520" y="1230" width="130" height="560" rx="10" fill="#d0cbf9"/><rect x="542" y="1264" width="19.333333333333332" height="30" rx="3.4799999999999995" fill="#fdfcff" opacity=".55"/><rect x="575.3333333333334" y="1264" width="19.333333333333332" height="30" rx="3.4799999999999995" fill="#fdfcff" opacity=".55"/><rect x="608.6666666666666" y="1264" width="19.333333333333332" height="30" rx="3.4799999999999995" fill="#fdfcff" opacity=".55"/><rect x="542" y="1320" width="19.333333333333332" height="30" rx="3.4799999999999995" fill="#fdfcff" opacity=".55"/><rect x="575.3333333333334" y="1320" width="19.333333333333332" height="30" rx="3.4799999999999995" fill="#fdfcff" opacity=".55"/><rect x="608.6666666666666" y="1320" width="19.333333333333332" height="30" rx="3.4799999999999995" fill="#fdfcff" opacity=".55"/><rect x="542" y="1376" width="19.333333333333332" height="30" rx="3.4799999999999995" fill="#fdfcff" opacity=".55"/><rect x="575.3333333333334" y="1376" width="19.333333333333332" height="30" rx="3.4799999999999995" fill="#fdfcff" opacity=".55"/><rect x="608.6666666666666" y="1376" width="19.333333333333332" height="30" rx="3.4799999999999995" fill="#fdfcff" opacity=".55"/><rect x="542" y="1432" width="19.333333333333332" height="30" rx="3.4799999999999995" fill="#fdfcff" opacity=".55"/><rect x="575.3333333333334" y="1432" width="19.333333333333332" height="30" rx="3.4799999999999995" fill="#fdfcff" opacity=".55"/><rect x="608.6666666666666" y="1432" width="19.333333333333332" height="30" rx="3.4799999999999995" fill="#fdfcff" opacity=".55"/><rect x="542" y="1488" width="19.333333333333332" height="30" rx="3.4799999999999995" fill="#fdfcff" opacity=".55"/><rect x="575.3333333333334" y="1488" width="19.333333333333332" height="30" rx="3.4799999999999995" fill="#fdfcff" opacity=".55"/><rect x="608.6666666666666" y="1488" width="19.333333333333332" height="30" rx="3.4799999999999995" fill="#fdfcff" opacity=".55"/><rect x="542" y="1544" width="19.333333333333332" height="30" rx="3.4799999999999995" fill="#fdfcff" opacity=".55"/><rect x="575.3333333333334" y="1544" width="19.333333333333332" height="30" rx="3.4799999999999995" fill="#fdfcff" opacity=".55"/><rect x="608.6666666666666" y="1544" width="19.333333333333332" height="30" rx="3.4799999999999995" fill="#fdfcff" opacity=".55"/><rect x="542" y="1600" width="19.333333333333332" height="30" rx="3.4799999999999995" fill="#fdfcff" opacity=".55"/><rect x="575.3333333333334" y="1600" width="19.333333333333332" height="30" rx="3.4799999999999995" fill="#fdfcff" opacity=".55"/><rect x="608.6666666666666" y="1600" width="19.333333333333332" height="30" rx="3.4799999999999995" fill="#fdfcff" opacity=".55"/><rect x="542" y="1656" width="19.333333333333332" height="30" rx="3.4799999999999995" fill="#fdfcff" opacity=".55"/><rect x="575.3333333333334" y="1656" width="19.333333333333332" height="30" rx="3.4799999999999995" fill="#fdfcff" opacity=".55"/><rect x="608.6666666666666" y="1656" width="19.333333333333332" height="30" rx="3.4799999999999995" fill="#fdfcff" opacity=".55"/><rect x="660" y="1090" width="160" height="700" rx="10" fill="#d0cbf9"/><rect x="682" y="1124" width="29.333333333333332" height="30" rx="5.279999999999999" fill="#fdfcff" opacity=".55"/><rect x="725.3333333333334" y="1124" width="29.333333333333332" height="30" rx="5.279999999999999" fill="#fdfcff" opacity=".55"/><rect x="768.6666666666666" y="1124" width="29.333333333333332" height="30" rx="5.279999999999999" fill="#fdfcff" opacity=".55"/><rect x="682" y="1180" width="29.333333333333332" height="30" rx="5.279999999999999" fill="#fdfcff" opacity=".55"/><rect x="725.3333333333334" y="1180" width="29.333333333333332" height="30" rx="5.279999999999999" fill="#fdfcff" opacity=".55"/><rect x="768.6666666666666" y="1180" width="29.333333333333332" height="30" rx="5.279999999999999" fill="#fdfcff" opacity=".55"/><rect x="682" y="1236" width="29.333333333333332" height="30" rx="5.279999999999999" fill="#fdfcff" opacity=".55"/><rect x="725.3333333333334" y="1236" width="29.333333333333332" height="30" rx="5.279999999999999" fill="#fdfcff" opacity=".55"/><rect x="768.6666666666666" y="1236" width="29.333333333333332" height="30" rx="5.279999999999999" fill="#fdfcff" opacity=".55"/><rect x="682" y="1292" width="29.333333333333332" height="30" rx="5.279999999999999" fill="#fdfcff" opacity=".55"/><rect x="725.3333333333334" y="1292" width="29.333333333333332" height="30" rx="5.279999999999999" fill="#fdfcff" opacity=".55"/><rect x="768.6666666666666" y="1292" width="29.333333333333332" height="30" rx="5.279999999999999" fill="#fdfcff" opacity=".55"/><rect x="682" y="1348" width="29.333333333333332" height="30" rx="5.279999999999999" fill="#fdfcff" opacity=".55"/><rect x="725.3333333333334" y="1348" width="29.333333333333332" height="30" rx="5.279999999999999" fill="#fdfcff" opacity=".55"/><rect x="768.6666666666666" y="1348" width="29.333333333333332" height="30" rx="5.279999999999999" fill="#fdfcff" opacity=".55"/><rect x="682" y="1404" width="29.333333333333332" height="30" rx="5.279999999999999" fill="#fdfcff" opacity=".55"/><rect x="725.3333333333334" y="1404" width="29.333333333333332" height="30" rx="5.279999999999999" fill="#fdfcff" opacity=".55"/><rect x="768.6666666666666" y="1404" width="29.333333333333332" height="30" rx="5.279999999999999" fill="#fdfcff" opacity=".55"/><rect x="682" y="1460" width="29.333333333333332" height="30" rx="5.279999999999999" fill="#fdfcff" opacity=".55"/><rect x="725.3333333333334" y="1460" width="29.333333333333332" height="30" rx="5.279999999999999" fill="#fdfcff" opacity=".55"/><rect x="768.6666666666666" y="1460" width="29.333333333333332" height="30" rx="5.279999999999999" fill="#fdfcff" opacity=".55"/><rect x="682" y="1516" width="29.333333333333332" height="30" rx="5.279999999999999" fill="#fdfcff" opacity=".55"/><rect x="725.3333333333334" y="1516" width="29.333333333333332" height="30" rx="5.279999999999999" fill="#fdfcff" opacity=".55"/><rect x="768.6666666666666" y="1516" width="29.333333333333332" height="30" rx="5.279999999999999" fill="#fdfcff" opacity=".55"/><rect x="682" y="1572" width="29.333333333333332" height="30" rx="5.279999999999999" fill="#fdfcff" opacity=".55"/><rect x="725.3333333333334" y="1572" width="29.333333333333332" height="30" rx="5.279999999999999" fill="#fdfcff" opacity=".55"/><rect x="768.6666666666666" y="1572" width="29.333333333333332" height="30" rx="5.279999999999999" fill="#fdfcff" opacity=".55"/><rect x="682" y="1628" width="29.333333333333332" height="30" rx="5.279999999999999" fill="#fdfcff" opacity=".55"/><rect x="725.3333333333334" y="1628" width="29.333333333333332" height="30" rx="5.279999999999999" fill="#fdfcff" opacity=".55"/><rect x="768.6666666666666" y="1628" width="29.333333333333332" height="30" rx="5.279999999999999" fill="#fdfcff" opacity=".55"/><rect x="682" y="1684" width="29.333333333333332" height="30" rx="5.279999999999999" fill="#fdfcff" opacity=".55"/><rect x="725.3333333333334" y="1684" width="29.333333333333332" height="30" rx="5.279999999999999" fill="#fdfcff" opacity=".55"/><rect x="768.6666666666666" y="1684" width="29.333333333333332" height="30" rx="5.279999999999999" fill="#fdfcff" opacity=".55"/><rect x="840" y="1200" width="140" height="590" rx="10" fill="#d0cbf9"/><rect x="862" y="1234" width="22.666666666666668" height="30" rx="4.08" fill="#fdfcff" opacity=".55"/><rect x="898.6666666666666" y="1234" width="22.666666666666668" height="30" rx="4.08" fill="#fdfcff" opacity=".55"/><rect x="935.3333333333334" y="1234" width="22.666666666666668" height="30" rx="4.08" fill="#fdfcff" opacity=".55"/><rect x="862" y="1290" width="22.666666666666668" height="30" rx="4.08" fill="#fdfcff" opacity=".55"/><rect x="898.6666666666666" y="1290" width="22.666666666666668" height="30" rx="4.08" fill="#fdfcff" opacity=".55"/><rect x="935.3333333333334" y="1290" width="22.666666666666668" height="30" rx="4.08" fill="#fdfcff" opacity=".55"/><rect x="862" y="1346" width="22.666666666666668" height="30" rx="4.08" fill="#fdfcff" opacity=".55"/><rect x="898.6666666666666" y="1346" width="22.666666666666668" height="30" rx="4.08" fill="#fdfcff" opacity=".55"/><rect x="935.3333333333334" y="1346" width="22.666666666666668" height="30" rx="4.08" fill="#fdfcff" opacity=".55"/><rect x="862" y="1402" width="22.666666666666668" height="30" rx="4.08" fill="#fdfcff" opacity=".55"/><rect x="898.6666666666666" y="1402" width="22.666666666666668" height="30" rx="4.08" fill="#fdfcff" opacity=".55"/><rect x="935.3333333333334" y="1402" width="22.666666666666668" height="30" rx="4.08" fill="#fdfcff" opacity=".55"/><rect x="862" y="1458" width="22.666666666666668" height="30" rx="4.08" fill="#fdfcff" opacity=".55"/><rect x="898.6666666666666" y="1458" width="22.666666666666668" height="30" rx="4.08" fill="#fdfcff" opacity=".55"/><rect x="935.3333333333334" y="1458" width="22.666666666666668" height="30" rx="4.08" fill="#fdfcff" opacity=".55"/><rect x="862" y="1514" width="22.666666666666668" height="30" rx="4.08" fill="#fdfcff" opacity=".55"/><rect x="898.6666666666666" y="1514" width="22.666666666666668" height="30" rx="4.08" fill="#fdfcff" opacity=".55"/><rect x="935.3333333333334" y="1514" width="22.666666666666668" height="30" rx="4.08" fill="#fdfcff" opacity=".55"/><rect x="862" y="1570" width="22.666666666666668" height="30" rx="4.08" fill="#fdfcff" opacity=".55"/><rect x="898.6666666666666" y="1570" width="22.666666666666668" height="30" rx="4.08" fill="#fdfcff" opacity=".55"/><rect x="935.3333333333334" y="1570" width="22.666666666666668" height="30" rx="4.08" fill="#fdfcff" opacity=".55"/><rect x="862" y="1626" width="22.666666666666668" height="30" rx="4.08" fill="#fdfcff" opacity=".55"/><rect x="898.6666666666666" y="1626" width="22.666666666666668" height="30" rx="4.08" fill="#fdfcff" opacity=".55"/><rect x="935.3333333333334" y="1626" width="22.666666666666668" height="30" rx="4.08" fill="#fdfcff" opacity=".55"/><rect x="862" y="1682" width="22.666666666666668" height="30" rx="4.08" fill="#fdfcff" opacity=".55"/><rect x="898.6666666666666" y="1682" width="22.666666666666668" height="30" rx="4.08" fill="#fdfcff" opacity=".55"/><rect x="935.3333333333334" y="1682" width="22.666666666666668" height="30" rx="4.08" fill="#fdfcff" opacity=".55"/><rect x="990" y="1150" width="120" height="640" rx="10" fill="#d0cbf9"/><rect x="1012" y="1184" width="16" height="30" rx="2.88" fill="#fdfcff" opacity=".55"/><rect x="1042" y="1184" width="16" height="30" rx="2.88" fill="#fdfcff" opacity=".55"/><rect x="1072" y="1184" width="16" height="30" rx="2.88" fill="#fdfcff" opacity=".55"/><rect x="1012" y="1240" width="16" height="30" rx="2.88" fill="#fdfcff" opacity=".55"/><rect x="1042" y="1240" width="16" height="30" rx="2.88" fill="#fdfcff" opacity=".55"/><rect x="1072" y="1240" width="16" height="30" rx="2.88" fill="#fdfcff" opacity=".55"/><rect x="1012" y="1296" width="16" height="30" rx="2.88" fill="#fdfcff" opacity=".55"/><rect x="1042" y="1296" width="16" height="30" rx="2.88" fill="#fdfcff" opacity=".55"/><rect x="1072" y="1296" width="16" height="30" rx="2.88" fill="#fdfcff" opacity=".55"/><rect x="1012" y="1352" width="16" height="30" rx="2.88" fill="#fdfcff" opacity=".55"/><rect x="1042" y="1352" width="16" height="30" rx="2.88" fill="#fdfcff" opacity=".55"/><rect x="1072" y="1352" width="16" height="30" rx="2.88" fill="#fdfcff" opacity=".55"/><rect x="1012" y="1408" width="16" height="30" rx="2.88" fill="#fdfcff" opacity=".55"/><rect x="1042" y="1408" width="16" height="30" rx="2.88" fill="#fdfcff" opacity=".55"/><rect x="1072" y="1408" width="16" height="30" rx="2.88" fill="#fdfcff" opacity=".55"/><rect x="1012" y="1464" width="16" height="30" rx="2.88" fill="#fdfcff" opacity=".55"/><rect x="1042" y="1464" width="16" height="30" rx="2.88" fill="#fdfcff" opacity=".55"/><rect x="1072" y="1464" width="16" height="30" rx="2.88" fill="#fdfcff" opacity=".55"/><rect x="1012" y="1520" width="16" height="30" rx="2.88" fill="#fdfcff" opacity=".55"/><rect x="1042" y="1520" width="16" height="30" rx="2.88" fill="#fdfcff" opacity=".55"/><rect x="1072" y="1520" width="16" height="30" rx="2.88" fill="#fdfcff" opacity=".55"/><rect x="1012" y="1576" width="16" height="30" rx="2.88" fill="#fdfcff" opacity=".55"/><rect x="1042" y="1576" width="16" height="30" rx="2.88" fill="#fdfcff" opacity=".55"/><rect x="1072" y="1576" width="16" height="30" rx="2.88" fill="#fdfcff" opacity=".55"/><rect x="1012" y="1632" width="16" height="30" rx="2.88" fill="#fdfcff" opacity=".55"/><rect x="1042" y="1632" width="16" height="30" rx="2.88" fill="#fdfcff" opacity=".55"/><rect x="1072" y="1632" width="16" height="30" rx="2.88" fill="#fdfcff" opacity=".55"/><rect x="1012" y="1688" width="16" height="30" rx="2.88" fill="#fdfcff" opacity=".55"/><rect x="1042" y="1688" width="16" height="30" rx="2.88" fill="#fdfcff" opacity=".55"/><rect x="1072" y="1688" width="16" height="30" rx="2.88" fill="#fdfcff" opacity=".55"/>
  <rect x="0" y="1100" width="1080" height="820" fill="url(#fade)"/>
  <g>
    <rect x="90" y="1310" width="190" height="480" rx="11.4" fill="url(#bSide)"/>
    <rect x="90" y="1310" width="95" height="480" rx="11.4" fill="#fdfcff" opacity=".08"/>
    <rect x="82.4" y="1300.5" width="205.20000000000002" height="17.099999999999998" rx="7.6000000000000005" fill="#7468dc"/>
    <rect x="120.4" y="1348" width="31.666666666666668" height="33.25" rx="5.7" fill="#edebfe" opacity=".95"/><rect x="169.16666666666669" y="1348" width="31.666666666666668" height="33.25" rx="5.7" fill="#edebfe" opacity=".95"/><rect x="217.93333333333334" y="1348" width="31.666666666666668" height="33.25" rx="5.7" fill="#edebfe" opacity=".95"/><rect x="120.4" y="1409.25" width="31.666666666666668" height="33.25" rx="5.7" fill="#edebfe" opacity=".95"/><rect x="169.16666666666669" y="1409.25" width="31.666666666666668" height="33.25" rx="5.7" fill="#edebfe" opacity=".95"/><rect x="217.93333333333334" y="1409.25" width="31.666666666666668" height="33.25" rx="5.7" fill="#edebfe" opacity=".95"/><rect x="120.4" y="1470.5" width="31.666666666666668" height="33.25" rx="5.7" fill="#edebfe" opacity=".95"/><rect x="169.16666666666669" y="1470.5" width="31.666666666666668" height="33.25" rx="5.7" fill="#edebfe" opacity=".95"/><rect x="217.93333333333334" y="1470.5" width="31.666666666666668" height="33.25" rx="5.7" fill="#edebfe" opacity=".95"/><rect x="120.4" y="1531.75" width="31.666666666666668" height="33.25" rx="5.7" fill="#edebfe" opacity=".95"/><rect x="169.16666666666669" y="1531.75" width="31.666666666666668" height="33.25" rx="5.7" fill="#edebfe" opacity=".95"/><rect x="217.93333333333334" y="1531.75" width="31.666666666666668" height="33.25" rx="5.7" fill="#edebfe" opacity=".95"/><rect x="120.4" y="1593" width="31.666666666666668" height="33.25" rx="5.7" fill="#edebfe" opacity=".95"/><rect x="169.16666666666669" y="1593" width="31.666666666666668" height="33.25" rx="5.7" fill="#edebfe" opacity=".95"/><rect x="217.93333333333334" y="1593" width="31.666666666666668" height="33.25" rx="5.7" fill="#edebfe" opacity=".95"/><rect x="120.4" y="1654.25" width="31.666666666666668" height="33.25" rx="5.7" fill="#edebfe" opacity=".95"/><rect x="169.16666666666669" y="1654.25" width="31.666666666666668" height="33.25" rx="5.7" fill="#edebfe" opacity=".95"/><rect x="217.93333333333334" y="1654.25" width="31.666666666666668" height="33.25" rx="5.7" fill="#edebfe" opacity=".95"/><rect x="120.4" y="1715.5" width="31.666666666666668" height="33.25" rx="5.7" fill="#edebfe" opacity=".95"/><rect x="169.16666666666669" y="1715.5" width="31.666666666666668" height="33.25" rx="5.7" fill="#edebfe" opacity=".95"/><rect x="217.93333333333334" y="1715.5" width="31.666666666666668" height="33.25" rx="5.7" fill="#edebfe" opacity=".95"/>
    
  </g><g>
    <rect x="300" y="1150" width="240" height="640" rx="14.399999999999999" fill="url(#bMain)"/>
    <rect x="300" y="1150" width="120" height="640" rx="14.399999999999999" fill="#fdfcff" opacity=".08"/>
    <rect x="290.4" y="1138" width="259.20000000000005" height="21.599999999999998" rx="9.6" fill="#3d2ec5"/>
    <rect x="338.4" y="1198" width="40" height="42" rx="7.199999999999999" fill="#edebfe" opacity=".95"/><rect x="400" y="1198" width="40" height="42" rx="7.199999999999999" fill="#edebfe" opacity=".95"/><rect x="461.59999999999997" y="1198" width="40" height="42" rx="7.199999999999999" fill="#edebfe" opacity=".95"/><rect x="338.4" y="1270" width="40" height="42" rx="7.199999999999999" fill="#edebfe" opacity=".95"/><rect x="400" y="1270" width="40" height="42" rx="7.199999999999999" fill="#edebfe" opacity=".95"/><rect x="461.59999999999997" y="1270" width="40" height="42" rx="7.199999999999999" fill="#edebfe" opacity=".95"/><rect x="338.4" y="1342" width="40" height="42" rx="7.199999999999999" fill="#edebfe" opacity=".95"/><rect x="400" y="1342" width="40" height="42" rx="7.199999999999999" fill="#edebfe" opacity=".95"/><rect x="461.59999999999997" y="1342" width="40" height="42" rx="7.199999999999999" fill="#edebfe" opacity=".95"/><rect x="338.4" y="1414" width="40" height="42" rx="7.199999999999999" fill="#edebfe" opacity=".95"/><rect x="400" y="1414" width="40" height="42" rx="7.199999999999999" fill="#edebfe" opacity=".95"/><rect x="461.59999999999997" y="1414" width="40" height="42" rx="7.199999999999999" fill="#edebfe" opacity=".95"/><rect x="338.4" y="1486" width="40" height="42" rx="7.199999999999999" fill="#edebfe" opacity=".95"/><rect x="400" y="1486" width="40" height="42" rx="7.199999999999999" fill="#edebfe" opacity=".95"/><rect x="461.59999999999997" y="1486" width="40" height="42" rx="7.199999999999999" fill="#edebfe" opacity=".95"/><rect x="338.4" y="1558" width="40" height="42" rx="7.199999999999999" fill="#edebfe" opacity=".95"/><rect x="400" y="1558" width="40" height="42" rx="7.199999999999999" fill="#edebfe" opacity=".95"/><rect x="461.59999999999997" y="1558" width="40" height="42" rx="7.199999999999999" fill="#edebfe" opacity=".95"/><rect x="338.4" y="1630" width="40" height="42" rx="7.199999999999999" fill="#edebfe" opacity=".95"/><rect x="400" y="1630" width="40" height="42" rx="7.199999999999999" fill="#edebfe" opacity=".95"/><rect x="461.59999999999997" y="1630" width="40" height="42" rx="7.199999999999999" fill="#edebfe" opacity=".95"/><rect x="338.4" y="1702" width="40" height="42" rx="7.199999999999999" fill="#edebfe" opacity=".95"/><rect x="400" y="1702" width="40" height="42" rx="7.199999999999999" fill="#edebfe" opacity=".95"/><rect x="461.59999999999997" y="1702" width="40" height="42" rx="7.199999999999999" fill="#edebfe" opacity=".95"/><rect x="338.4" y="1774" width="40" height="42" rx="7.199999999999999" fill="#edebfe" opacity=".95"/><rect x="400" y="1774" width="40" height="42" rx="7.199999999999999" fill="#edebfe" opacity=".95"/><rect x="461.59999999999997" y="1774" width="40" height="42" rx="7.199999999999999" fill="#edebfe" opacity=".95"/>
    <rect x="391.2" y="1713.2" width="57.599999999999994" height="76.8" rx="12" fill="#edebfe"/>
  </g><g>
    <rect x="560" y="1230" width="200" height="560" rx="12" fill="url(#bSide)"/>
    <rect x="560" y="1230" width="100" height="560" rx="12" fill="#fdfcff" opacity=".08"/>
    <rect x="552" y="1220" width="216" height="18" rx="8" fill="#7468dc"/>
    <rect x="592" y="1270" width="33.333333333333336" height="35.00000000000001" rx="6" fill="#edebfe" opacity=".95"/><rect x="643.3333333333334" y="1270" width="33.333333333333336" height="35.00000000000001" rx="6" fill="#edebfe" opacity=".95"/><rect x="694.6666666666666" y="1270" width="33.333333333333336" height="35.00000000000001" rx="6" fill="#edebfe" opacity=".95"/><rect x="592" y="1333" width="33.333333333333336" height="35.00000000000001" rx="6" fill="#edebfe" opacity=".95"/><rect x="643.3333333333334" y="1333" width="33.333333333333336" height="35.00000000000001" rx="6" fill="#edebfe" opacity=".95"/><rect x="694.6666666666666" y="1333" width="33.333333333333336" height="35.00000000000001" rx="6" fill="#edebfe" opacity=".95"/><rect x="592" y="1396" width="33.333333333333336" height="35.00000000000001" rx="6" fill="#edebfe" opacity=".95"/><rect x="643.3333333333334" y="1396" width="33.333333333333336" height="35.00000000000001" rx="6" fill="#edebfe" opacity=".95"/><rect x="694.6666666666666" y="1396" width="33.333333333333336" height="35.00000000000001" rx="6" fill="#edebfe" opacity=".95"/><rect x="592" y="1459" width="33.333333333333336" height="35.00000000000001" rx="6" fill="#edebfe" opacity=".95"/><rect x="643.3333333333334" y="1459" width="33.333333333333336" height="35.00000000000001" rx="6" fill="#edebfe" opacity=".95"/><rect x="694.6666666666666" y="1459" width="33.333333333333336" height="35.00000000000001" rx="6" fill="#edebfe" opacity=".95"/><rect x="592" y="1522" width="33.333333333333336" height="35.00000000000001" rx="6" fill="#edebfe" opacity=".95"/><rect x="643.3333333333334" y="1522" width="33.333333333333336" height="35.00000000000001" rx="6" fill="#edebfe" opacity=".95"/><rect x="694.6666666666666" y="1522" width="33.333333333333336" height="35.00000000000001" rx="6" fill="#edebfe" opacity=".95"/><rect x="592" y="1585" width="33.333333333333336" height="35.00000000000001" rx="6" fill="#edebfe" opacity=".95"/><rect x="643.3333333333334" y="1585" width="33.333333333333336" height="35.00000000000001" rx="6" fill="#edebfe" opacity=".95"/><rect x="694.6666666666666" y="1585" width="33.333333333333336" height="35.00000000000001" rx="6" fill="#edebfe" opacity=".95"/><rect x="592" y="1648" width="33.333333333333336" height="35.00000000000001" rx="6" fill="#edebfe" opacity=".95"/><rect x="643.3333333333334" y="1648" width="33.333333333333336" height="35.00000000000001" rx="6" fill="#edebfe" opacity=".95"/><rect x="694.6666666666666" y="1648" width="33.333333333333336" height="35.00000000000001" rx="6" fill="#edebfe" opacity=".95"/><rect x="592" y="1711" width="33.333333333333336" height="35.00000000000001" rx="6" fill="#edebfe" opacity=".95"/><rect x="643.3333333333334" y="1711" width="33.333333333333336" height="35.00000000000001" rx="6" fill="#edebfe" opacity=".95"/><rect x="694.6666666666666" y="1711" width="33.333333333333336" height="35.00000000000001" rx="6" fill="#edebfe" opacity=".95"/>
    
  </g><g>
    <rect x="780" y="1350" width="210" height="440" rx="12.6" fill="url(#bMain)"/>
    <rect x="780" y="1350" width="105" height="440" rx="12.6" fill="#fdfcff" opacity=".08"/>
    <rect x="771.6" y="1339.5" width="226.8" height="18.9" rx="8.4" fill="#3d2ec5"/>
    <rect x="813.6" y="1392" width="35.00000000000001" height="36.75000000000001" rx="6.300000000000001" fill="#edebfe" opacity=".95"/><rect x="867.5" y="1392" width="35.00000000000001" height="36.75000000000001" rx="6.300000000000001" fill="#edebfe" opacity=".95"/><rect x="921.4000000000001" y="1392" width="35.00000000000001" height="36.75000000000001" rx="6.300000000000001" fill="#edebfe" opacity=".95"/><rect x="813.6" y="1458.75" width="35.00000000000001" height="36.75000000000001" rx="6.300000000000001" fill="#edebfe" opacity=".95"/><rect x="867.5" y="1458.75" width="35.00000000000001" height="36.75000000000001" rx="6.300000000000001" fill="#edebfe" opacity=".95"/><rect x="921.4000000000001" y="1458.75" width="35.00000000000001" height="36.75000000000001" rx="6.300000000000001" fill="#edebfe" opacity=".95"/><rect x="813.6" y="1525.5" width="35.00000000000001" height="36.75000000000001" rx="6.300000000000001" fill="#edebfe" opacity=".95"/><rect x="867.5" y="1525.5" width="35.00000000000001" height="36.75000000000001" rx="6.300000000000001" fill="#edebfe" opacity=".95"/><rect x="921.4000000000001" y="1525.5" width="35.00000000000001" height="36.75000000000001" rx="6.300000000000001" fill="#edebfe" opacity=".95"/><rect x="813.6" y="1592.25" width="35.00000000000001" height="36.75000000000001" rx="6.300000000000001" fill="#edebfe" opacity=".95"/><rect x="867.5" y="1592.25" width="35.00000000000001" height="36.75000000000001" rx="6.300000000000001" fill="#edebfe" opacity=".95"/><rect x="921.4000000000001" y="1592.25" width="35.00000000000001" height="36.75000000000001" rx="6.300000000000001" fill="#edebfe" opacity=".95"/><rect x="813.6" y="1659" width="35.00000000000001" height="36.75000000000001" rx="6.300000000000001" fill="#edebfe" opacity=".95"/><rect x="867.5" y="1659" width="35.00000000000001" height="36.75000000000001" rx="6.300000000000001" fill="#edebfe" opacity=".95"/><rect x="921.4000000000001" y="1659" width="35.00000000000001" height="36.75000000000001" rx="6.300000000000001" fill="#edebfe" opacity=".95"/><rect x="813.6" y="1725.75" width="35.00000000000001" height="36.75000000000001" rx="6.300000000000001" fill="#edebfe" opacity=".95"/><rect x="867.5" y="1725.75" width="35.00000000000001" height="36.75000000000001" rx="6.300000000000001" fill="#edebfe" opacity=".95"/><rect x="921.4000000000001" y="1725.75" width="35.00000000000001" height="36.75000000000001" rx="6.300000000000001" fill="#edebfe" opacity=".95"/>
    <rect x="859.8" y="1722.8" width="50.4" height="67.2" rx="10.5" fill="#edebfe"/>
  </g>
  <path d="M0 1790 Q 280 1740 560 1775 T 1080 1770 V1920 H0Z" fill="url(#ground)"/>
  <path d="M0 1850 Q 320 1810 600 1845 T 1080 1835 V1920 H0Z" fill="#358458" opacity=".6"/>
  
  <g transform="translate(60 1800) scale(1.3)">
    <rect x="-5" y="-10" width="10" height="46" rx="4" fill="#6d6b7a"/>
    <circle cx="0" cy="-40" r="38" fill="#5c5188"/>
    <circle cx="-16" cy="-24" r="24" fill="#348457" opacity=".55"/>
    <circle cx="14" cy="-56" r="16" fill="#fdfcff" opacity=".18"/>
  </g>
  <g transform="translate(285 1810) scale(1)">
    <rect x="-5" y="-10" width="10" height="46" rx="4" fill="#6d6b7a"/>
    <circle cx="0" cy="-40" r="38" fill="#685c99"/>
    <circle cx="-16" cy="-24" r="24" fill="#348457" opacity=".55"/>
    <circle cx="14" cy="-56" r="16" fill="#fdfcff" opacity=".18"/>
  </g>
  <g transform="translate(555 1805) scale(1.2)">
    <rect x="-5" y="-10" width="10" height="46" rx="4" fill="#6d6b7a"/>
    <circle cx="0" cy="-40" r="38" fill="#5c5188"/>
    <circle cx="-16" cy="-24" r="24" fill="#348457" opacity=".55"/>
    <circle cx="14" cy="-56" r="16" fill="#fdfcff" opacity=".18"/>
  </g>
  <g transform="translate(1015 1795) scale(1.4)">
    <rect x="-5" y="-10" width="10" height="46" rx="4" fill="#6d6b7a"/>
    <circle cx="0" cy="-40" r="38" fill="#5c5188"/>
    <circle cx="-16" cy="-24" r="24" fill="#348457" opacity=".55"/>
    <circle cx="14" cy="-56" r="16" fill="#fdfcff" opacity=".18"/>
  </g>
  <g transform="translate(770 1812) scale(0.95)">
    <rect x="-5" y="-10" width="10" height="46" rx="4" fill="#6d6b7a"/>
    <circle cx="0" cy="-40" r="38" fill="#685c99"/>
    <circle cx="-16" cy="-24" r="24" fill="#348457" opacity=".55"/>
    <circle cx="14" cy="-56" r="16" fill="#fdfcff" opacity=".18"/>
  </g>
  <g transform="translate(180 1870) scale(0.8)">
    <rect x="-5" y="-10" width="10" height="46" rx="4" fill="#6d6b7a"/>
    <circle cx="0" cy="-40" r="38" fill="#685c99"/>
    <circle cx="-16" cy="-24" r="24" fill="#348457" opacity=".55"/>
    <circle cx="14" cy="-56" r="16" fill="#fdfcff" opacity=".18"/>
  </g>
  <g transform="translate(900 1875) scale(0.85)">
    <rect x="-5" y="-10" width="10" height="46" rx="4" fill="#6d6b7a"/>
    <circle cx="0" cy="-40" r="38" fill="#685c99"/>
    <circle cx="-16" cy="-24" r="24" fill="#348457" opacity=".55"/>
    <circle cx="14" cy="-56" r="16" fill="#fdfcff" opacity=".18"/>
  </g></svg>